<svg width="40" height="40" viewBox="0 0 40 40" fill="none" xmlns="http://www.w3.org/2000/svg">
<path fill-rule="evenodd" clip-rule="evenodd" d="M19.9997 4.5835C11.4266 4.5835 4.58301 11.4873 4.58301 20.0002C4.58301 20.6905 4.02336 21.2502 3.33301 21.2502C2.64265 21.2502 2.08301 20.6905 2.08301 20.0002C2.08301 10.1131 10.0394 2.0835 19.9997 2.0835C25.9292 2.0835 30.3694 4.56017 33.3025 7.00697C34.1215 7.69018 34.8259 8.37324 35.4163 9.00352V4.26683C35.4163 3.57647 35.976 3.01683 36.6663 3.01683C37.3567 3.01683 37.9163 3.57647 37.9163 4.26683V12.6002C37.9163 13.2905 37.3567 13.8502 36.6663 13.8502H29.2663C28.576 13.8502 28.0163 13.2905 28.0163 12.6002C28.0163 11.9098 28.576 11.3502 29.2663 11.3502H34.1651C33.543 10.6292 32.7213 9.77777 31.701 8.92669C29.0799 6.74016 25.1869 4.5835 19.9997 4.5835ZM36.6663 18.7502C37.3567 18.7502 37.9163 19.3098 37.9163 20.0002C37.9163 29.8905 29.89 37.9168 19.9997 37.9168C14.9656 37.9168 10.9738 35.3832 8.30155 32.9594C7.59224 32.316 6.96793 31.6734 6.43301 31.0759V35.7335C6.43301 36.4239 5.87336 36.9835 5.18301 36.9835C4.49265 36.9835 3.93301 36.4239 3.93301 35.7335V27.4002C3.93301 26.7098 4.49265 26.1502 5.18301 26.1502H12.7163C13.4067 26.1502 13.9663 26.7098 13.9663 27.4002C13.9663 28.0905 13.4067 28.6502 12.7163 28.6502H7.64484C8.24616 29.3812 9.03038 30.2453 9.98113 31.1076C12.4172 33.3172 15.8338 35.4168 19.9997 35.4168C28.5093 35.4168 35.4163 28.5098 35.4163 20.0002C35.4163 19.3098 35.976 18.7502 36.6663 18.7502Z" fill="white"/>
<path fill-rule="evenodd" clip-rule="evenodd" d="M19.9997 4.5835C11.4266 4.5835 4.58301 11.4873 4.58301 20.0002C4.58301 20.6905 4.02336 21.2502 3.33301 21.2502C2.64265 21.2502 2.08301 20.6905 2.08301 20.0002C2.08301 10.1131 10.0394 2.0835 19.9997 2.0835C25.9292 2.0835 30.3694 4.56017 33.3025 7.00697C34.1215 7.69018 34.8259 8.37324 35.4163 9.00352V4.26683C35.4163 3.57647 35.976 3.01683 36.6663 3.01683C37.3567 3.01683 37.9163 3.57647 37.9163 4.26683V12.6002C37.9163 13.2905 37.3567 13.8502 36.6663 13.8502H29.2663C28.576 13.8502 28.0163 13.2905 28.0163 12.6002C28.0163 11.9098 28.576 11.3502 29.2663 11.3502H34.1651C33.543 10.6292 32.7213 9.77777 31.701 8.92669C29.0799 6.74016 25.1869 4.5835 19.9997 4.5835ZM36.6663 18.7502C37.3567 18.7502 37.9163 19.3098 37.9163 20.0002C37.9163 29.8905 29.89 37.9168 19.9997 37.9168C14.9656 37.9168 10.9738 35.3832 8.30155 32.9594C7.59224 32.316 6.96793 31.6734 6.43301 31.0759V35.7335C6.43301 36.4239 5.87336 36.9835 5.18301 36.9835C4.49265 36.9835 3.93301 36.4239 3.93301 35.7335V27.4002C3.93301 26.7098 4.49265 26.1502 5.18301 26.1502H12.7163C13.4067 26.1502 13.9663 26.7098 13.9663 27.4002C13.9663 28.0905 13.4067 28.6502 12.7163 28.6502H7.64484C8.24616 29.3812 9.03038 30.2453 9.98113 31.1076C12.4172 33.3172 15.8338 35.4168 19.9997 35.4168C28.5093 35.4168 35.4163 28.5098 35.4163 20.0002C35.4163 19.3098 35.976 18.7502 36.6663 18.7502Z" fill="white"/>
</svg>
