<svg width="40" height="40" viewBox="0 0 40 40" fill="none" xmlns="http://www.w3.org/2000/svg">
<path fill-rule="evenodd" clip-rule="evenodd" d="M20 2.08325C20.6904 2.08325 21.25 2.6429 21.25 3.33325V10.3155L22.4495 9.11603C22.9376 8.62788 23.7291 8.62788 24.2172 9.11603C24.7054 9.60419 24.7054 10.3956 24.2172 10.8838L20.8839 14.2171C20.5264 14.5746 19.9887 14.6816 19.5216 14.4881C19.0546 14.2946 18.75 13.8388 18.75 13.3333V3.33325C18.75 2.6429 19.3096 2.08325 20 2.08325Z" fill="white"/>
<path fill-rule="evenodd" clip-rule="evenodd" d="M15.7828 9.11603C16.2709 8.62788 17.0624 8.62788 17.5506 9.11603L20.8839 12.4494C21.372 12.9375 21.372 13.729 20.8839 14.2171C20.3957 14.7053 19.6043 14.7053 19.1161 14.2171L15.7828 10.8838C15.2946 10.3956 15.2946 9.60419 15.7828 9.11603Z" fill="white"/>
<path fill-rule="evenodd" clip-rule="evenodd" d="M4.80489 21.2415C5.99924 19.5127 8.21528 18.7499 11.6667 18.7499C12.5814 18.7499 13.2866 18.8446 13.9203 19.0914C14.5152 19.3231 14.9695 19.6642 15.3688 19.964C15.3848 19.976 15.4008 19.988 15.4167 19.9999C15.4752 20.0438 15.5297 20.0927 15.5796 20.1461L17.2607 21.9437C18.7531 23.5216 21.2509 23.5152 22.721 21.9455L22.7246 21.9416L24.4246 20.1416C24.4734 20.09 24.5265 20.0426 24.5833 19.9999C24.5992 19.988 24.6152 19.976 24.6312 19.964C25.0305 19.6642 25.4848 19.3231 26.0797 19.0914C26.7134 18.8446 27.4186 18.7499 28.3333 18.7499C31.7847 18.7499 34.0008 19.5127 35.1951 21.2415C35.7669 22.0692 36.0171 23.0043 36.1353 23.9091C36.2501 24.7879 36.25 25.7337 36.25 26.6216V28.3333C36.25 30.7443 35.821 33.1822 34.2958 35.0225C32.731 36.9107 30.2311 37.9166 26.6667 37.9166H13.3333C9.04816 37.9166 6.41563 36.9661 5.01311 34.9352C4.33726 33.9566 4.03495 32.842 3.89074 31.7379C3.74995 30.6599 3.74997 29.4957 3.75 28.3797L3.75 26.6216C3.74997 25.7336 3.74993 24.7879 3.86469 23.9091C3.98286 23.0043 4.23309 22.0692 4.80489 21.2415ZM6.34364 24.2329C6.25201 24.9346 6.25 25.7259 6.25 26.6666V28.3333C6.25 29.5031 6.25201 30.5132 6.36968 31.4141C6.48589 32.3037 6.70442 32.9849 7.07023 33.5146C7.75104 34.5004 9.28518 35.4166 13.3333 35.4166H26.6667C29.7689 35.4166 31.4357 34.5558 32.3709 33.4273C33.3457 32.251 33.75 30.5222 33.75 28.3333V26.6666C33.75 25.7259 33.748 24.9346 33.6564 24.2329C33.5662 23.5424 33.3998 23.0411 33.1382 22.6625C32.6659 21.9788 31.5486 21.2499 28.3333 21.2499C27.5814 21.2499 27.2199 21.3302 26.9869 21.421C26.7551 21.5112 26.5652 21.6401 26.1683 21.9363L24.5457 23.6544C24.545 23.6551 24.5443 23.6558 24.5436 23.6566C22.0807 26.284 17.9151 26.2775 15.4412 23.6582L15.437 23.6537L13.8292 21.9345C13.4341 21.6396 13.2444 21.511 13.0131 21.421C12.7801 21.3302 12.4186 21.2499 11.6667 21.2499C8.45139 21.2499 7.33409 21.9788 6.86178 22.6625C6.60025 23.0411 6.43381 23.5424 6.34364 24.2329Z" fill="white"/>
<path fill-rule="evenodd" clip-rule="evenodd" d="M14.5775 6.61304C14.644 7.3002 14.1408 7.91109 13.4536 7.97752C11.1796 8.19734 10.4132 8.8872 10.0611 9.54696C9.61391 10.3846 9.58334 11.5575 9.58334 13.3333V20C9.58334 20.6903 9.02369 21.25 8.33334 21.25C7.64298 21.25 7.08334 20.6903 7.08334 20V13.3333C7.08334 13.278 7.0833 13.2222 7.08326 13.1662C7.08222 11.627 7.08099 9.8208 7.85561 8.36967C8.75343 6.68777 10.4871 5.75263 13.2131 5.48912C13.9002 5.42269 14.5111 5.92589 14.5775 6.61304Z" fill="white"/>
<path fill-rule="evenodd" clip-rule="evenodd" d="M25.4225 6.61304C25.4889 5.92589 26.0998 5.42269 26.7869 5.48912C29.5129 5.75263 31.2466 6.68777 32.1444 8.36967C32.919 9.8208 32.9178 11.627 32.9167 13.1662C32.9167 13.2222 32.9167 13.278 32.9167 13.3333V20C32.9167 20.6903 32.357 21.25 31.6667 21.25C30.9763 21.25 30.4167 20.6903 30.4167 20V13.3333C30.4167 11.5575 30.3861 10.3846 29.9389 9.54696C29.5868 8.8872 28.8204 8.19734 26.5464 7.97752C25.8592 7.91109 25.356 7.3002 25.4225 6.61304Z" fill="white"/>
</svg>
