<svg width="40" height="40" viewBox="0 0 40 40" fill="none" xmlns="http://www.w3.org/2000/svg">
<path fill-rule="evenodd" clip-rule="evenodd" d="M6.47524 8.72865C5.34198 9.78096 4.58301 11.4884 4.58301 14.1668C4.58301 14.8572 4.02336 15.4168 3.33301 15.4168C2.64265 15.4168 2.08301 14.8572 2.08301 14.1668C2.08301 11.0119 2.9907 8.5527 4.77411 6.89667C6.54075 5.25622 8.97472 4.5835 11.6663 4.5835H28.333C31.0246 4.5835 33.4586 5.25622 35.2252 6.89667C37.0086 8.5527 37.9163 11.0119 37.9163 14.1668V25.8335C37.9163 28.9884 37.0086 31.4476 35.2252 33.1037C33.4586 34.7441 31.0246 35.4168 28.333 35.4168H11.6663C10.976 35.4168 10.4163 34.8572 10.4163 34.1668C10.4163 33.4765 10.976 32.9168 11.6663 32.9168H28.333C30.6414 32.9168 32.3741 32.3396 33.5241 31.2717C34.6574 30.2194 35.4163 28.5119 35.4163 25.8335V14.1668C35.4163 11.4884 34.6574 9.78096 33.5241 8.72865C32.3741 7.66077 30.6414 7.0835 28.333 7.0835H11.6663C9.35796 7.0835 7.62526 7.66077 6.47524 8.72865Z" fill="white"/>
<path fill-rule="evenodd" clip-rule="evenodd" d="M29.3097 14.2201C29.7405 14.7595 29.6525 15.546 29.1131 15.9769L23.8949 20.1448C21.7226 21.8742 18.2601 21.8742 16.0878 20.1448L16.0847 20.1423L10.8847 15.9756C10.346 15.544 10.2592 14.7573 10.6909 14.2185C11.1225 13.6798 11.9092 13.593 12.448 14.0247L17.6463 18.19C18.9074 19.1927 21.0766 19.1924 22.3372 18.1894L27.5529 14.0235C28.0923 13.5926 28.8789 13.6806 29.3097 14.2201Z" fill="white"/>
<path fill-rule="evenodd" clip-rule="evenodd" d="M2.08301 27.5002C2.08301 26.8098 2.64265 26.2502 3.33301 26.2502H13.333C14.0234 26.2502 14.583 26.8098 14.583 27.5002C14.583 28.1905 14.0234 28.7502 13.333 28.7502H3.33301C2.64265 28.7502 2.08301 28.1905 2.08301 27.5002Z" fill="white"/>
<path fill-rule="evenodd" clip-rule="evenodd" d="M2.08301 20.8335C2.08301 20.1431 2.64265 19.5835 3.33301 19.5835H8.33301C9.02336 19.5835 9.58301 20.1431 9.58301 20.8335C9.58301 21.5239 9.02336 22.0835 8.33301 22.0835H3.33301C2.64265 22.0835 2.08301 21.5239 2.08301 20.8335Z" fill="white"/>
</svg>
