<svg width="32" height="30" viewBox="0 0 32 30" fill="none" xmlns="http://www.w3.org/2000/svg">
<g clip-path="url(#clip0_110_939)">
<path fill-rule="evenodd" clip-rule="evenodd" d="M8.812 2.684C10.811 0.96027 13.3605 0.00827703 16 0C21.38 0 25.846 4 26.332 9.158C29.516 9.608 32 12.274 32 15.546C32 19.138 29.004 22 25.374 22H20C19.7348 22 19.4804 21.8946 19.2929 21.7071C19.1054 21.5196 19 21.2652 19 21C19 20.7348 19.1054 20.4804 19.2929 20.2929C19.4804 20.1054 19.7348 20 20 20H25.376C27.958 20 30 17.976 30 15.546C30 13.114 27.96 11.09 25.374 11.09H24.374V10.09C24.376 5.65 20.656 2 16 2C13.8398 2.00863 11.7537 2.78887 10.118 4.2C8.604 5.504 7.812 7.076 7.812 8.31V9.206L6.922 9.304C4.128 9.61 2 11.904 2 14.636C2 17.57 4.46 20 7.562 20H12C12.2652 20 12.5196 20.1054 12.7071 20.2929C12.8946 20.4804 13 20.7348 13 21C13 21.2652 12.8946 21.5196 12.7071 21.7071C12.5196 21.8946 12.2652 22 12 22H7.562C3.416 22 0 18.732 0 14.636C0 11.11 2.532 8.19 5.884 7.45C6.17 5.724 7.28 4.004 8.812 2.684Z" fill="white"/>
<path fill-rule="evenodd" clip-rule="evenodd" d="M15.2933 8.29379C15.3862 8.20066 15.4965 8.12678 15.618 8.07636C15.7395 8.02595 15.8697 8 16.0013 8C16.1328 8 16.263 8.02595 16.3845 8.07636C16.506 8.12678 16.6164 8.20066 16.7093 8.29379L22.7093 14.2938C22.897 14.4816 23.0025 14.7362 23.0025 15.0018C23.0025 15.2673 22.897 15.522 22.7093 15.7098C22.5215 15.8976 22.2668 16.003 22.0013 16.003C21.7357 16.003 21.481 15.8976 21.2933 15.7098L17.0013 11.4158V29.0018C17.0013 29.267 16.8959 29.5214 16.7084 29.7089C16.5208 29.8964 16.2665 30.0018 16.0013 30.0018C15.736 30.0018 15.4817 29.8964 15.2942 29.7089C15.1066 29.5214 15.0013 29.267 15.0013 29.0018V11.4158L10.7093 15.7098C10.5215 15.8976 10.2668 16.003 10.0013 16.003C9.73571 16.003 9.48104 15.8976 9.29326 15.7098C9.10549 15.522 9 15.2673 9 15.0018C9 14.7362 9.10549 14.4816 9.29326 14.2938L15.2933 8.29379Z" fill="white"/>
</g>
<defs>
<clipPath id="clip0_110_939">
<rect width="32" height="30" fill="white"/>
</clipPath>
</defs>
</svg>
